<?xml version="1.0" encoding="UTF-8" standalone="no"?>
<!-- Created with Inkscape (http://www.inkscape.org/) -->

<svg
   xmlns:dc="http://purl.org/dc/elements/1.1/"
   xmlns:cc="http://creativecommons.org/ns#"
   xmlns:rdf="http://www.w3.org/1999/02/22-rdf-syntax-ns#"
   xmlns:svg="http://www.w3.org/2000/svg"
   xmlns="http://www.w3.org/2000/svg"
   xmlns:sodipodi="http://sodipodi.sourceforge.net/DTD/sodipodi-0.dtd"
   xmlns:inkscape="http://www.inkscape.org/namespaces/inkscape"
   width="744.09448819"
   height="1052.3622047"
   id="svg2"
   version="1.1"
   inkscape:version="0.48.5 r10040"
   sodipodi:docname="New document 1">
  <defs
     id="defs4">
    <inkscape:perspective
       sodipodi:type="inkscape:persp3d"
       inkscape:vp_x="0 : 526.18109 : 1"
       inkscape:vp_y="0 : 1000 : 0"
       inkscape:vp_z="744.09448 : 526.18109 : 1"
       inkscape:persp3d-origin="372.04724 : 350.78739 : 1"
       id="perspective3092" />
  </defs>
  <sodipodi:namedview
     id="base"
     pagecolor="#ffffff"
     bordercolor="#666666"
     borderopacity="1.0"
     inkscape:pageopacity="0.0"
     inkscape:pageshadow="2"
     inkscape:zoom="0.35"
     inkscape:cx="375"
     inkscape:cy="520"
     inkscape:document-units="px"
     inkscape:current-layer="layer1"
     showgrid="false"
     inkscape:window-width="1282"
     inkscape:window-height="745"
     inkscape:window-x="76"
     inkscape:window-y="-8"
     inkscape:window-maximized="1" />
  <metadata
     id="metadata7">
    <rdf:RDF>
      <cc:Work
         rdf:about="">
        <dc:format>image/svg+xml</dc:format>
        <dc:type
           rdf:resource="http://purl.org/dc/dcmitype/StillImage" />
        <dc:title></dc:title>
      </cc:Work>
    </rdf:RDF>
  </metadata>
  <g
     inkscape:label="Layer 1"
     inkscape:groupmode="layer"
     id="layer1">
    <g
       id="g3007"
       transform="translate(-120,-54.285714)">
      <path
         sodipodi:nodetypes="csssc"
         inkscape:connector-curvature="0"
         id="path3003"
         d="m 471.42857,315.21932 c -95.9529,8.30026 -128.28308,116.15216 -114.28572,182.85714 22.65598,107.96793 73.32075,226.5594 151.42858,225.71429 C 596.34294,722.84108 643.84815,595.19596 654.28571,500.9336 667.78156,379.05156 630.28568,317.16221 471.42857,315.21932 z"
         style="fill:none;stroke:#000000;stroke-width:1px;stroke-linecap:butt;stroke-linejoin:miter;stroke-opacity:1" />
      <path
         inkscape:connector-curvature="0"
         id="path3005"
         d="m 492.52705,719.57024 c -24.08341,-5.74351 -43.11384,-20.09314 -64.12278,-48.35091 -33.37262,-44.88735 -67.44984,-139.64906 -71.43764,-198.65332 -3.00394,-44.44678 13.91716,-90.33898 44.83857,-121.60798 25.99009,-26.28224 41.99631,-32.40777 84.33766,-32.27575 55.18972,0.17208 102.68203,13.72915 129.12323,36.85927 28.36925,24.81674 38.24345,51.83546 38.25645,104.68102 0.0229,90.93839 -33.88273,188.79001 -80.53511,232.42784 -23.62327,22.0968 -55.69298,32.82646 -80.46038,26.91983 l 0,0 z"
         style="fill:#ffb380;fill-opacity:1;stroke:#000000;stroke-width:2.85714293;stroke-opacity:1" />
    </g>
    <path
       style="fill:none;stroke:#000000;stroke-width:1px;stroke-linecap:butt;stroke-linejoin:miter;stroke-opacity:1"
       d="m 245.71429,343.79075 c 39.58268,-37.69669 158.45006,-65.18205 285.71428,8.57143"
       id="path3011"
       inkscape:connector-curvature="0"
       sodipodi:nodetypes="cc" />
    <path
       style="fill:#000000;fill-opacity:1;stroke:#000000;stroke-width:2.85714293;stroke-opacity:1"
       d="m 503.28571,335.40278 c -22.1716,-10.50636 -63.44288,-23.25551 -87.92325,-27.16044 -46.25382,-7.37809 -111.15202,-0.23748 -141.62798,15.58302 -5.25317,2.72699 -10.11823,4.39117 -10.81124,3.69816 -1.87126,-1.87126 19.57021,-28.21324 30.34288,-37.27784 20.42645,-17.18772 30.08421,-20.18698 68.59102,-21.30119 75.03954,-2.17129 133.48343,22.14223 155.48202,64.68282 5.47389,10.58534 4.73503,10.67868 -14.05345,1.77547 z"
       id="path3013"
       inkscape:connector-curvature="0" />
    <g
       id="g3044"
       transform="matrix(0.9286533,0,0,1,666.1484,-54.285714)">
      <path
         inkscape:connector-curvature="0"
         id="path3017"
         d="m -431.42857,389.50504 -122.85715,-42.85714 137.14286,-5.71429 -77.14286,-65.71428 114.28572,20 31.42857,-91.42857 60,80 88.57143,-51.42857 -14.28572,85.71428 100,-25.71428 -42.85714,111.42857"
         style="fill:none;stroke:#000000;stroke-width:1px;stroke-linecap:butt;stroke-linejoin:miter;stroke-opacity:1" />
      <g
         id="g3040">
        <g
           id="g3037"
           transform="translate(-688.57143,57.142857)">
          <path
             inkscape:connector-curvature="0"
             id="path3021"
             d="m 525.09403,332.62225 c -6.20849,-17.1693 -30.23949,-40.44606 -52.85906,-51.20003 -30.4432,-14.47355 -59.2606,-20.00945 -104.70447,-20.11403 -37.74914,-0.0869 -39.02825,0.11568 -57.21562,9.06007 -19.77837,9.72683 -44.39523,32.12119 -53.12213,48.32606 -2.89124,5.3687 -6.56024,9.26403 -8.15334,8.65629 -1.5931,-0.60774 -24.7209,-8.66447 -51.39511,-17.90385 l -48.49856,-16.79886 14.21285,-1.89256 c 7.81706,-1.0409 25.14141,-2.01289 38.49855,-2.15998 31.9464,-0.35179 71.47849,-3.49091 71.23629,-5.65665 -0.10576,-0.94566 -15.48784,-14.51588 -34.1824,-30.15604 -18.69455,-15.64016 -33.52807,-28.89868 -32.96336,-29.46339 0.5647,-0.56471 23.82601,2.9597 51.69179,7.83202 27.86577,4.87232 51.2264,8.2974 51.91251,7.6113 0.6861,-0.68611 7.97316,-20.63589 16.19346,-44.33286 l 14.94601,-43.08539 28.43999,38.4077 c 15.642,21.12424 29.33015,38.45325 30.41811,38.50892 1.08795,0.0557 20.6951,-10.76271 43.57143,-24.04084 22.87632,-13.27813 41.61692,-23.24241 41.64577,-22.14286 0.0289,1.09956 -2.73994,19.05182 -6.15288,39.89392 -3.41295,20.8421 -5.49263,38.60746 -4.62149,39.47859 0.87112,0.87113 21.73029,-3.72279 46.35372,-10.20873 24.62342,-6.48593 45.8296,-11.39416 47.12482,-10.90716 2.12735,0.79985 -33.4148,96.90599 -37.20862,100.61231 -0.87718,0.85695 -3.20289,-2.88883 -5.16826,-8.32395 l 0,0 z"
             style="fill:#000000;fill-opacity:1;stroke:#000000;stroke-width:2.85714293;stroke-opacity:1" />
        </g>
      </g>
    </g>
    <path
       style="fill:#000000;fill-opacity:1;stroke:#000000;stroke-width:2.85714293;stroke-opacity:1"
       d="m 492.45513,329.49561 c -42.29207,-17.74041 -76.95768,-24.51978 -122.02656,-23.86409 -11.78571,0.17146 -23.35714,0.31351 -25.71428,0.31565 -9.96603,0.009 -52.95952,8.78813 -63.29997,12.92556 -6.17255,2.46976 -11.86518,3.84811 -12.6503,3.063 -2.72759,-2.72759 28.21743,-33.82426 41.33059,-41.53313 12.98182,-7.63167 13.96171,-7.75255 61.76253,-7.61868 44.86731,0.12566 50.32497,0.72042 71.56517,7.79896 27.16993,9.05469 45.57256,20.59922 61.27802,38.44156 17.65315,20.05504 15.33266,22.03935 -12.2452,10.47117 l 0,0 z"
       id="path3023"
       inkscape:connector-curvature="0" />
    <path
       style="fill:#000000;fill-opacity:1;stroke:#000000;stroke-width:2.85714293;stroke-opacity:1"
       d="m 484.71429,327.98562 c -62.69383,-24.50781 -126.88318,-28.15195 -192.6152,-10.93511 -12.29959,3.22157 -22.99153,5.22876 -23.75986,4.46042 -2.58673,-2.58672 29.03223,-33.62765 42.0493,-41.28058 12.64439,-7.43383 13.87724,-7.58111 62.89718,-7.51406 40.92976,0.056 52.85065,1.02636 65.71429,5.34922 26.2674,8.82723 47.68249,21.66176 62.78058,37.62576 22.48634,23.776 18.90497,26.35597 -17.06629,12.29435 z"
       id="path3025"
       inkscape:connector-curvature="0" />
    <path
       style="fill:#000000;fill-opacity:1;stroke:#000000;stroke-width:2.85714293;stroke-opacity:1"
       d="m 486.14286,329.43313 c -40.31828,-16.45286 -59.04526,-19.65144 -114.28572,-19.52006 -43.45706,0.10335 -55.19289,1.09668 -75.71428,6.40855 -27.29569,7.06536 -28.57143,7.24455 -28.57143,4.01318 0,-5.10169 36.4451,-38.22447 48.52437,-44.10091 11.57712,-5.63215 17.16474,-6.25033 54.33277,-6.01105 63.52719,0.40896 93.79876,10.37035 127.75002,42.03836 26.90633,25.09686 22.56458,31.29143 -12.03573,17.17193 z"
       id="path3027"
       inkscape:connector-curvature="0" />
    <path
       style="fill:#000000;fill-opacity:1;stroke:#000000;stroke-width:2.85714293;stroke-opacity:1"
       d=""
       id="path3029"
       inkscape:connector-curvature="0" />
    <path
       style="fill:#000000;fill-opacity:1;stroke:#000000;stroke-width:2.86451364;stroke-opacity:1"
       d="m 469.19191,319.6599 c -43.90978,-15.88863 -77.64069,-21.0632 -124.03706,-19.02822 -26.22678,1.15034 -45.46573,3.7607 -64.60015,8.76504 -14.98742,3.91974 -27.59693,6.78152 -28.02112,6.35951 -1.94956,-1.93954 16.81771,-24.15067 28.22205,-33.40089 24.48036,-19.85636 28.28913,-20.91534 74.43533,-20.6957 49.03188,0.23337 68.6696,3.69637 97.01438,17.10793 21.83312,10.33051 50.07436,35.01108 53.06023,46.37034 2.10644,8.01369 0.56515,7.77963 -36.07366,-5.47801 z"
       id="path3031"
       inkscape:connector-curvature="0" />
    <g
       id="g3098">
      <g
         style="fill:#ffffff"
         transform="translate(-14.285714,-5.7142857)"
         id="g3088">
        <path
           style="fill:#ffffff;stroke:#000000;stroke-width:1.10226262000000010px;stroke-linecap:butt;stroke-linejoin:miter;stroke-opacity:1"
           d="m 412.85521,382.07623 c 158.18329,-76.42344 78.46443,109.61184 0,0 z"
           id="path3050-1"
           inkscape:connector-curvature="0"
           sodipodi:nodetypes="cc" />
        <path
           style="fill:#ffffff;stroke:#000000;stroke-width:1.15118897000000000px;stroke-linecap:butt;stroke-linejoin:miter;stroke-opacity:1"
           d="m 396.3984,384.09443 c -172.53758,-76.42344 -85.58466,109.61184 0,0 z"
           id="path3050-1-7"
           inkscape:connector-curvature="0"
           sodipodi:nodetypes="cc" />
      </g>
      <path
         d="m 340.00001,390.93362 a 11.428572,10 0 1 1 -22.85714,0 11.428572,10 0 1 1 22.85714,0 z"
         sodipodi:ry="10"
         sodipodi:rx="11.428572"
         sodipodi:cy="390.93362"
         sodipodi:cx="328.57144"
         id="path3094"
         style="fill:#000000;fill-opacity:1;stroke:#000000;stroke-opacity:1"
         sodipodi:type="arc" />
      <path
         d="m 468.57142,388.07648 a 11.428572,10 0 1 1 -22.85714,0 11.428572,10 0 1 1 22.85714,0 z"
         sodipodi:ry="10"
         sodipodi:rx="11.428572"
         sodipodi:cy="388.07648"
         sodipodi:cx="457.14285"
         id="path3096"
         style="fill:#000000;fill-opacity:1;stroke:#000000;stroke-opacity:1"
         sodipodi:type="arc" />
    </g>
    <path
       style="fill:none;stroke:#000000;stroke-width:1px;stroke-linecap:butt;stroke-linejoin:miter;stroke-opacity:1"
       d="m 391.42857,449.50504 c -54.246,17.89299 -5.23022,38.50565 0,40"
       id="path3105"
       inkscape:connector-curvature="0" />
    <path
       style="fill:none;stroke:#000000;stroke-width:1px;stroke-linecap:butt;stroke-linejoin:miter;stroke-opacity:1"
       d="m 305.71429,558.07647 c 61.31588,30.46766 124.01539,28.07503 182.85714,2.85714"
       id="path3109"
       inkscape:connector-curvature="0" />
  </g>
</svg>
